<?xml version="1.0" encoding="utf-8"?>
<!-- Generator: Adobe Illustrator 23.0.1, SVG Export Plug-In . SVG Version: 6.00 Build 0)  -->
<svg version="1.1" id="Capa_1" xmlns="http://www.w3.org/2000/svg" xmlns:xlink="http://www.w3.org/1999/xlink" x="0px" y="0px"
	 viewBox="0 0 18.8 17.8" style="enable-background:new 0 0 18.8 17.8;" xml:space="preserve">
<style type="text/css">
	.st0{fill:url(#SVGID_1_);}
</style>
<title>cardio</title>
<g id="Capa_5">
	
		<linearGradient id="SVGID_1_" gradientUnits="userSpaceOnUse" x1="9.42" y1="-1418.8431" x2="9.42" y2="-1401.0599" gradientTransform="matrix(1 0 0 -1 0 -1401.1001)">
		<stop  offset="0" style="stop-color:#8457FF"/>
		<stop  offset="0.22" style="stop-color:#6C6DFE"/>
		<stop  offset="0.67" style="stop-color:#30A5FD"/>
		<stop  offset="1" style="stop-color:#00D1FC"/>
	</linearGradient>
	<path class="st0" d="M18.8,9.9c0,0.3-0.3,0.6-0.6,0.6c0,0,0,0,0,0h-3.6c-0.3,0-0.5-0.2-0.6-0.5l-0.7-4.6l-1.3,11.9
		c0,0.3-0.3,0.5-0.5,0.5l0,0c-0.3,0-0.5-0.2-0.6-0.4L9,10.5l-1.9,3.6c-0.1,0.2-0.3,0.3-0.6,0.3c-0.2,0-0.4-0.2-0.5-0.4l-0.9-3.7H0.6
		C0.3,10.3,0,10,0,9.7c0-0.3,0.3-0.6,0.6-0.6c0,0,0,0,0,0h4.9c0.3,0,0.5,0.2,0.6,0.4l0.7,2.6l1.9-3.6C8.7,8.4,9,8.3,9.2,8.3
		c0.2,0,0.4,0.2,0.5,0.4l1.5,5.4l1.5-13.6c0-0.3,0.3-0.6,0.7-0.5c0.3,0,0.5,0.2,0.5,0.5l1.2,8.8h3.1C18.6,9.3,18.8,9.6,18.8,9.9z"/>
</g>
</svg>
