<svg xmlns="http://www.w3.org/2000/svg" xmlns:xlink="http://www.w3.org/1999/xlink" viewBox="0 0 16.22 9.66"><defs><style>.cls-1{isolation:isolate;}.cls-2{mix-blend-mode:luminosity;}.cls-3{fill:url(#Nueva_muestra_de_degradado_2);}.cls-4{fill:url(#Nueva_muestra_de_degradado_2-2);}.cls-5{fill:url(#Nueva_muestra_de_degradado_2-3);}</style><linearGradient id="Nueva_muestra_de_degradado_2" x1="2.73" y1="4.81" x2="6.12" y2="4.81" gradientUnits="userSpaceOnUse"><stop offset="0" stop-color="#8457ff"/><stop offset="0.22" stop-color="#6c6dfe"/><stop offset="0.67" stop-color="#30a5fd"/><stop offset="1" stop-color="#00d1fc"/></linearGradient><linearGradient id="Nueva_muestra_de_degradado_2-2" x1="10.1" y1="4.81" x2="13.48" y2="4.81" xlink:href="#Nueva_muestra_de_degradado_2"/><linearGradient id="Nueva_muestra_de_degradado_2-3" x1="0" y1="4.83" x2="16.22" y2="4.83" xlink:href="#Nueva_muestra_de_degradado_2"/></defs><title>icono pequeno virtual</title><g class="cls-1"><g id="Capa_2" data-name="Capa 2"><g id="Capa_160" data-name="Capa 160"><g class="cls-2"><path class="cls-3" d="M4.43,6.5A1.7,1.7,0,1,1,6.12,4.81,1.7,1.7,0,0,1,4.43,6.5ZM4.43,4a.78.78,0,0,0-.78.78.78.78,0,0,0,1.56,0A.78.78,0,0,0,4.43,4Z"/><path class="cls-4" d="M11.79,6.5a1.7,1.7,0,1,1,1.69-1.69A1.69,1.69,0,0,1,11.79,6.5Zm0-2.47a.78.78,0,0,0-.78.78.78.78,0,0,0,1.56,0A.78.78,0,0,0,11.79,4Z"/><path class="cls-5" d="M15,9.66H11.17a2,2,0,0,1-2-1L8.48,7.53a.51.51,0,0,0-.74,0L7,8.66a2,2,0,0,1-2,1H1.18A1.18,1.18,0,0,1,0,8.48V1.09A1.14,1.14,0,0,1,1.14,0H15.07a1.13,1.13,0,0,1,1.14,1.07V8.48A1.18,1.18,0,0,1,15,9.66ZM8.11,6.44A1.37,1.37,0,0,1,9.25,7L10,8.17c.29.44.49.58,1.21.58H15a.27.27,0,0,0,.26-.27V1.11a.23.23,0,0,0-.23-.2H1.14a.23.23,0,0,0-.23.2V8.48a.27.27,0,0,0,.27.27H5.05c.72,0,.91-.13,1.2-.58L7,7A1.35,1.35,0,0,1,8.11,6.44Z"/></g></g></g></g></svg>