<svg xmlns="http://www.w3.org/2000/svg" xmlns:xlink="http://www.w3.org/1999/xlink" viewBox="0 0 89.45 89.45"><defs><style>.cls-1{isolation:isolate;}.cls-2{fill:#3c3e55;}.cls-3{fill:none;stroke-miterlimit:10;stroke-width:2px;opacity:0.54;stroke:url(#Degradado_sin_nombre_7);}.cls-4{mix-blend-mode:luminosity;fill:url(#degrade_claro_2);}</style><linearGradient id="Degradado_sin_nombre_7" x1="44.73" y1="80.73" x2="44.73" y2="8.72" gradientUnits="userSpaceOnUse"><stop offset="0" stop-color="#00d1fc"/><stop offset="0.33" stop-color="#30a5fd"/><stop offset="0.78" stop-color="#6c6dfe"/><stop offset="1" stop-color="#8457ff"/></linearGradient><linearGradient id="degrade_claro_2" x1="44.73" y1="58.03" x2="44.73" y2="31.42" gradientUnits="userSpaceOnUse"><stop offset="0" stop-color="#dbddf3"/><stop offset="0.15" stop-color="#d8d8f3"/><stop offset="0.33" stop-color="#cecaf5"/><stop offset="0.52" stop-color="#bfb2f7"/><stop offset="0.73" stop-color="#a990fa"/><stop offset="0.94" stop-color="#8e66fe"/><stop offset="1" stop-color="#8457ff"/></linearGradient></defs><title>calorias borde y fondo</title><g class="cls-1"><g id="Capa_2" data-name="Capa 2"><g id="Capa_83" data-name="Capa 83"><circle class="cls-2" cx="44.73" cy="44.73" r="44.73"/><circle class="cls-3" cx="44.73" cy="44.73" r="35.01"/><path class="cls-4" d="M53.75,41a20.64,20.64,0,0,0-3.27-4.9,1.12,1.12,0,0,0-.78-.38,1.11,1.11,0,0,0-.81.3l-3,2.78V32.58a1.19,1.19,0,0,0-1.77-1,23.69,23.69,0,0,0-8.36,9.18,15.44,15.44,0,0,0-1.58,6.73A10.54,10.54,0,0,0,44.72,58a10.43,10.43,0,0,0,8.83-4.83C55.75,49.75,55.82,45.4,53.75,41Zm-8.4,7a1.12,1.12,0,0,0-1.18,0c-2.3,1.37-4.13,4.22-3.57,6.78a8.35,8.35,0,0,1-4.18-7.22c0-4.57,2.64-9.23,7.27-12.86v6.68a1.11,1.11,0,0,0,1.87.81l4-3.72A14.48,14.48,0,0,1,53,47.49a8.35,8.35,0,0,1-4.17,7.22C49.4,52.18,47.58,49.42,45.35,48Zm-.64,2.32a5.18,5.18,0,0,1,2,3.54,2,2,0,1,1-4,0A5,5,0,0,1,44.71,50.27Z"/></g></g></g></svg>