<svg xmlns="http://www.w3.org/2000/svg" xmlns:xlink="http://www.w3.org/1999/xlink" viewBox="0 0 89.45 89.45"><defs><style>.cls-1{isolation:isolate;}.cls-2{fill:#3c3e55;}.cls-3{fill:none;stroke-miterlimit:10;stroke-width:2px;opacity:0.54;stroke:url(#Degradado_sin_nombre_7);}.cls-4{mix-blend-mode:luminosity;}.cls-5{fill:url(#degrade_claro_2);}</style><linearGradient id="Degradado_sin_nombre_7" x1="44.73" y1="80.73" x2="44.73" y2="8.72" gradientUnits="userSpaceOnUse"><stop offset="0" stop-color="#00d1fc"/><stop offset="0.33" stop-color="#30a5fd"/><stop offset="0.78" stop-color="#6c6dfe"/><stop offset="1" stop-color="#8457ff"/></linearGradient><linearGradient id="degrade_claro_2" x1="44.73" y1="57.17" x2="44.73" y2="30.8" gradientUnits="userSpaceOnUse"><stop offset="0" stop-color="#dbddf3"/><stop offset="0.15" stop-color="#d8d8f3"/><stop offset="0.33" stop-color="#cecaf5"/><stop offset="0.52" stop-color="#bfb2f7"/><stop offset="0.73" stop-color="#a990fa"/><stop offset="0.94" stop-color="#8e66fe"/><stop offset="1" stop-color="#8457ff"/></linearGradient></defs><title>pulsaciones borde y fondo</title><g class="cls-1"><g id="Capa_2" data-name="Capa 2"><g id="Capa_83" data-name="Capa 83"><circle class="cls-2" cx="44.73" cy="44.73" r="44.73"/><circle class="cls-3" cx="44.73" cy="44.73" r="35.01"/><g class="cls-4"><path class="cls-5" d="M58.68,45.53a.88.88,0,0,1-.88.87H52.42a.87.87,0,0,1-.87-.75l-.95-6.83L48.68,56.39a.88.88,0,0,1-.81.77H47.8a.87.87,0,0,1-.84-.64L44.1,46.34,41.28,51.7a.88.88,0,0,1-1.63-.19L38.27,46H31.65a.88.88,0,1,1,0-1.76H39a.89.89,0,0,1,.85.67l1,3.92,2.78-5.27a.86.86,0,0,1,.86-.47.89.89,0,0,1,.76.64l2.23,7.94,2.2-20.11a.89.89,0,0,1,.86-.78.91.91,0,0,1,.89.77l1.81,13.08H57.8A.88.88,0,0,1,58.68,45.53Z"/></g></g></g></g></svg>