<svg xmlns="http://www.w3.org/2000/svg" viewBox="0 0 47.98 47.98"><defs><style>.cls-1{fill:#dbddf3;}.cls-2{fill:#3c3e55;}</style></defs><title>distancia boton sup</title><g id="Capa_2" data-name="Capa 2"><g id="Capa_113" data-name="Capa 113"><circle class="cls-1" cx="23.99" cy="23.99" r="23.99"/><path class="cls-2" d="M16.85,24.93a3.8,3.8,0,1,0-6.78-2.36,3.74,3.74,0,0,0,.82,2.36l3,3.78Zm-4.11-2.36a1.13,1.13,0,1,1,1.13,1.14A1.13,1.13,0,0,1,12.74,22.57Z"/><path class="cls-2" d="M32.91,21.36A2.63,2.63,0,1,0,35.54,24,2.62,2.62,0,0,0,32.91,21.36Z"/><path class="cls-2" d="M14.66,17.18V15.79l17.46-2.91v6.44a3.42,3.42,0,0,1,.79-.1,3.5,3.5,0,0,1,.8.1V11L13.07,14.44v2.74a4.26,4.26,0,0,1,.8-.08A4.15,4.15,0,0,1,14.66,17.18Z"/><path class="cls-2" d="M32.12,28.65V35.1L14.66,32.19V30.08H13.07v3.45L33.71,37V28.65a3,3,0,0,1-.8.1A3,3,0,0,1,32.12,28.65Z"/></g></g></svg>