<?xml version="1.0" encoding="utf-8"?>
<!-- Generator: Adobe Illustrator 23.0.1, SVG Export Plug-In . SVG Version: 6.00 Build 0)  -->
<svg version="1.1" id="Capa_1" xmlns="http://www.w3.org/2000/svg" xmlns:xlink="http://www.w3.org/1999/xlink" x="0px" y="0px"
	 viewBox="0 0 98.6 98.6" style="enable-background:new 0 0 98.6 98.6;" xml:space="preserve">
<style type="text/css">
	.st0{opacity:0.54;fill:none;stroke:url(#SVGID_1_);stroke-width:2.92;stroke-miterlimit:10;enable-background:new    ;}
	.st1{fill:#DBDDF3;}
</style>
<title>entrenamiento</title>
<g id="Capa_24">
	
		<linearGradient id="SVGID_1_" gradientUnits="userSpaceOnUse" x1="49.3" y1="-466.6264" x2="49.3" y2="-368.0263" gradientTransform="matrix(1 0 0 -1 0 -368.0263)">
		<stop  offset="0" style="stop-color:#00D1FC"/>
		<stop  offset="0.33" style="stop-color:#30A5FD"/>
		<stop  offset="0.78" style="stop-color:#6C6DFE"/>
		<stop  offset="1" style="stop-color:#8457FF"/>
	</linearGradient>
	<circle class="st0" cx="49.3" cy="49.3" r="47.8"/>
	<path class="st1" d="M66.5,39.2c-0.5-1-1.5-1.7-2.6-1.8c-1.1-0.1-2.2,0.4-2.8,1.3l0,0c-0.7,1.2-2,2-3.4,2.3
		c2.5-1.2,3.5-4.1,2.3-6.6c-1.2-2.5-4.1-3.5-6.6-2.3c-2.3,1.1-3.4,3.9-2.4,6.3c-5-2.1-10.1-0.7-13.5,4.1c-0.9,1.2-0.7,2.9,0.5,3.8
		c0,0,0.1,0.1,0.1,0.1c1.4,1,3.3,0.8,4.4-0.6c0,0,0,0,0-0.1c0.8-1.4,2.4-2.3,4.1-2.3c-1,1.8-2,3.7-3.3,6.3c-0.8,1.7-2.2,3-3.9,3.6
		c-1,0.3-2.1,0.2-3-0.4c-1.5-0.9-3.4-0.5-4.3,1c0,0,0,0.1-0.1,0.1c-0.9,1.4-0.4,3.2,1,4c0.1,0,0.1,0.1,0.2,0.1
		c4.4,2.5,10,1.7,13.4-2.1c1.9,0.9,3.7,2,5.4,3.3c0.9,1.4,1.7,2.8,2.3,4.4c0.3,0.6,0.5,1.2,0.7,1.6c0.5,1,1.5,1.7,2.6,1.7
		c0.5,0,1-0.1,1.4-0.3c1.4-0.6,2.1-2.3,1.5-3.8c0-0.1-0.1-0.1-0.1-0.2c-0.2-0.4-0.4-0.9-0.7-1.5c-1.4-3-2.5-5.4-3.7-6.3
		c-1.3-1.1-2.7-2.1-4.2-3c1-1.9,1.9-3.6,2.9-5.2c4.4,1,8.5-0.7,11.4-4.8C66.7,41.1,66.9,40.1,66.5,39.2z M55.5,33.7
		c1.6,0,2.8,1.3,2.8,2.8s-1.3,2.8-2.8,2.8s-2.8-1.3-2.8-2.8v0C52.7,35,54,33.7,55.5,33.7z M64.5,40.8c-2.6,3.7-6.2,5.1-10.1,3.9
		c-0.5-0.1-0.8-0.1-1,0.4c-1.3,2.2-2.5,4.5-3.8,6.9c-0.1,0.2-0.2,0.5-0.2,0.7c0.1,0.2,0.3,0.4,0.5,0.4c1.7,1,3.3,2,4.8,3.3
		c0.9,0.7,2.3,3.8,3.1,5.6v0.1c0.2,0.5,0.5,1,0.7,1.5c0.2,0.3,0.2,0.7,0,0.9c-0.2,0.3-0.6,0.5-1.1,0.5c-0.4,0-0.7-0.2-0.9-0.6
		c-0.2-0.4-0.5-1-0.7-1.6c-1.2-2.6-2-4.4-2.8-5.1c-1.9-1.5-4-2.8-6.3-3.7c0,0-0.9-0.2-1.3,0.4c-2.8,3.4-7.7,4.3-11.5,2
		c-0.5-0.2-0.8-0.8-0.6-1.3c0-0.1,0.1-0.2,0.1-0.2c0.2-0.3,0.4-0.5,0.8-0.6c0.3-0.1,0.7,0,1,0.2c1.4,0.8,3,1,4.5,0.6
		c2.2-0.8,4.1-2.4,5.1-4.6c0.4-0.8,0.8-1.5,1.1-2.2C47,46.5,48,44.8,49,43c0.2-0.2,0.2-0.5,0.2-0.8c-0.1-0.2-0.4-0.4-0.6-0.5
		c-2.9-0.9-5.6,0-7.5,2.8c-0.4,0.5-1.2,0.6-1.7,0.2c0,0,0,0,0,0c-0.2-0.1-0.4-0.3-0.4-0.6c0-0.2,0-0.4,0.2-0.6
		c3.3-4.6,7.9-5.6,12.6-2.7l0.6,0.4l0.8,0.4c3.7,2.2,7.2,1.5,9.6-1.8c0.2-0.3,0.6-0.5,1-0.5c0.4,0,0.8,0.3,1,0.7
		C64.8,40.3,64.8,40.6,64.5,40.8L64.5,40.8z"/>
</g>
</svg>
