<svg xmlns="http://www.w3.org/2000/svg" xmlns:xlink="http://www.w3.org/1999/xlink" viewBox="0 0 38.45 38.45"><defs><style>.cls-1{isolation:isolate;}.cls-2{fill:#dbddf3;}.cls-2,.cls-3{mix-blend-mode:luminosity;}.cls-4{fill:url(#degrade_claro_5);}</style><linearGradient id="degrade_claro_5" x1="10.13" y1="20.22" x2="32.01" y2="20.22" gradientUnits="userSpaceOnUse"><stop offset="0" stop-color="#3c3e55"/><stop offset="0.21" stop-color="#393b50"/><stop offset="0.47" stop-color="#2f3142"/><stop offset="0.74" stop-color="#20202a"/><stop offset="1" stop-color="#0c0c0c"/></linearGradient></defs><title>boton play reprod</title><g class="cls-1"><g id="Capa_2" data-name="Capa 2"><g id="Capa_148" data-name="Capa 148"><circle class="cls-2" cx="19.22" cy="19.22" r="19.22"/><g class="cls-3"><path class="cls-4" d="M11.53,32a1.42,1.42,0,0,1-.72-.2,1.39,1.39,0,0,1-.68-1.19V9.84a1.39,1.39,0,0,1,2.06-1.22L31.28,19A1.38,1.38,0,0,1,32,20.22a1.41,1.41,0,0,1-.73,1.23L12.19,31.83A1.41,1.41,0,0,1,11.53,32Zm1.39-19.82V28.26l14.78-8Z"/></g></g></g></g></svg>