<svg xmlns="http://www.w3.org/2000/svg" viewBox="0 0 47.98 47.98"><defs><style>.cls-1{fill:#dbddf3;}.cls-2{fill:#3c3e55;}</style></defs><title>tiempo boton sup</title><g id="Capa_2" data-name="Capa 2"><g id="Capa_118" data-name="Capa 118"><circle class="cls-1" cx="23.99" cy="23.99" r="23.99"/><path class="cls-2" d="M33.09,19.24l1.2-1.19a1.67,1.67,0,0,0-2.36-2.36L30.65,17a11.65,11.65,0,0,0-4.44-1.88V13.43h1.11a.56.56,0,0,0,.56-.56V11.43a1.67,1.67,0,0,0-1.67-1.67H21.77a1.67,1.67,0,0,0-1.67,1.67v1.44a.56.56,0,0,0,.55.56h1.12v1.66A11.7,11.7,0,0,0,17.32,17l-1.27-1.28a1.67,1.67,0,0,0-2.36,2.36l1.19,1.19a11.68,11.68,0,1,0,18.21,0ZM22.88,13.43H25.1v1.5a11.76,11.76,0,0,0-2.22,0ZM24,36.05a9.51,9.51,0,0,1-1.43-18.91A9.73,9.73,0,0,1,24,17,9.37,9.37,0,0,1,29.74,19a10.05,10.05,0,0,1,1.39,1.3A9.5,9.5,0,0,1,24,36.05Z"/><path class="cls-2" d="M25.14,24.59V21a1.16,1.16,0,1,0-2.31,0v3.6a2.28,2.28,0,1,0,2.31,0ZM24,27.16a.62.62,0,1,1,.61-.62A.61.61,0,0,1,24,27.16Z"/></g></g></svg>