<?xml version="1.0" encoding="utf-8"?>
<!-- Generator: Adobe Illustrator 23.0.1, SVG Export Plug-In . SVG Version: 6.00 Build 0)  -->
<svg version="1.1" id="Capa_1" xmlns="http://www.w3.org/2000/svg" xmlns:xlink="http://www.w3.org/1999/xlink" x="0px" y="0px"
	 viewBox="0 0 131.6 135.9" style="enable-background:new 0 0 131.6 135.9;" xml:space="preserve">
<style type="text/css">
	.st0{opacity:0.5;fill:none;stroke:url(#SVGID_1_);stroke-width:5.14;stroke-miterlimit:10;enable-background:new    ;}
	.st1{fill:#DBDDF3;}
</style>
<title>velocidad icon bot</title>
<g id="Capa_176">
	
		<linearGradient id="SVGID_1_" gradientUnits="userSpaceOnUse" x1="65.8023" y1="-709.8968" x2="65.8023" y2="-579.8968" gradientTransform="matrix(1 0 0 -1 0 -576.9463)">
		<stop  offset="0" style="stop-color:#00D1FC"/>
		<stop  offset="0.33" style="stop-color:#30A5FD"/>
		<stop  offset="0.78" style="stop-color:#6C6DFE"/>
		<stop  offset="1" style="stop-color:#8457FF"/>
	</linearGradient>
	<circle class="st0" cx="65.8" cy="68" r="62.4"/>
	<path class="st1" d="M83.3,58.9l2.3-2.3c1.3-1.3,1.3-3.3,0-4.5s-3.3-1.3-4.5,0l-2.5,2.5c-2.6-1.8-5.5-3-8.6-3.6v-3.2h2.2
		c0.6,0,1.1-0.5,1.1-1.1l0,0v-2.8c0-1.8-1.4-3.2-3.2-3.2c0,0,0,0,0,0h-8.6c-1.8,0-3.2,1.4-3.2,3.2c0,0,0,0,0,0v2.8
		c0,0.6,0.5,1.1,1.1,1.1l0,0h2.1v3.2c-3.1,0.6-6,1.8-8.6,3.6L50.5,52c-1.3-1.3-3.3-1.3-4.5,0s-1.3,3.3,0,4.5l2.3,2.3
		c-7.8,9.7-6.2,23.8,3.5,31.6c9.7,7.8,23.8,6.2,31.6-3.5C89.9,78.8,89.9,67.1,83.3,58.9L83.3,58.9z M63.7,47.7h4.3v2.9
		c-1.4-0.1-2.9-0.1-4.3,0V47.7z M65.8,91.2c-10.1,0-18.3-8.2-18.3-18.3c0-4.5,1.6-8.8,4.6-12.1c0.8-0.9,1.7-1.8,2.7-2.5
		c2.4-1.9,5.3-3.1,8.3-3.5c6.2-0.9,12.4,1.3,16.5,6c6.7,7.6,5.9,19.2-1.7,25.9C74.6,89.6,70.3,91.2,65.8,91.2L65.8,91.2z"/>
	<path class="st1" d="M68.1,69.1v-7c0-1.2-1-2.2-2.2-2.2c-1.2,0-2.2,1-2.2,2.2v7c-2.1,1.2-2.8,3.9-1.5,6c1.2,2.1,3.9,2.8,6,1.5
		c2.1-1.2,2.8-3.9,1.5-6C69.2,70,68.7,69.5,68.1,69.1z M65.8,74.1c-0.7,0-1.2-0.5-1.2-1.2s0.5-1.2,1.2-1.2c0.7,0,1.2,0.5,1.2,1.2
		l0,0C67,73.5,66.5,74.1,65.8,74.1C65.8,74.1,65.8,74.1,65.8,74.1L65.8,74.1z"/>
</g>
<g id="Capa_134">
	<path class="st1" d="M-870.4-706.7c-1.1-0.1-2.1,0.8-2.2,1.9c0,0.1,0,0.2,0,0.2c-0.1,1.1,0.8,2.1,1.9,2.2c0.1,0,0.2,0,0.2,0
		c1.1,0.1,2.1-0.8,2.2-1.9c0-0.1,0-0.2,0-0.2c0.1-1.1-0.8-2.1-1.9-2.2C-870.2-706.7-870.3-706.7-870.4-706.7z"/>
</g>
</svg>
