<svg xmlns="http://www.w3.org/2000/svg" xmlns:xlink="http://www.w3.org/1999/xlink" viewBox="0 0 15.91 12.65"><defs><style>.cls-1{fill:url(#Nueva_muestra_de_degradado_2);}.cls-2{fill:url(#Nueva_muestra_de_degradado_2-2);}.cls-3{fill:url(#Nueva_muestra_de_degradado_2-3);}</style><linearGradient id="Nueva_muestra_de_degradado_2" x1="9.9" y1="9.82" x2="9.9" y2="2.21" gradientUnits="userSpaceOnUse"><stop offset="0" stop-color="#8457ff"/><stop offset="0.22" stop-color="#6c6dfe"/><stop offset="0.67" stop-color="#30a5fd"/><stop offset="1" stop-color="#00d1fc"/></linearGradient><linearGradient id="Nueva_muestra_de_degradado_2-2" x1="5.8" y1="12.65" x2="5.8" y2="0" xlink:href="#Nueva_muestra_de_degradado_2"/><linearGradient id="Nueva_muestra_de_degradado_2-3" x1="14.02" y1="12.65" x2="14.02" y2="4.32" xlink:href="#Nueva_muestra_de_degradado_2"/></defs><title>velocidad icon_1</title><g id="Capa_2" data-name="Capa 2"><g id="Capa_8" data-name="Capa 8"><path class="cls-1" d="M13.52,2.39a.63.63,0,0,0-.79-.08C11.8,3,7.14,6.14,6.64,6.64A1.86,1.86,0,0,0,8,9.82a1.9,1.9,0,0,0,1.32-.54c.5-.51,3.68-5.17,4.32-6.1A.61.61,0,0,0,13.52,2.39ZM8.4,8.4a.63.63,0,0,1-.88,0,.61.61,0,0,1,0-.88c.19-.2,1.52-1.14,3.15-2.27C9.53,6.88,8.59,8.2,8.4,8.4Z"/><path class="cls-2" d="M2.87,10.85l-.77.37A6.67,6.67,0,0,1,1.24,8a6.76,6.76,0,0,1,.44-2.39L2.56,6a.66.66,0,0,0,.27.06A.63.63,0,0,0,3.1,4.87l-.87-.41A6.74,6.74,0,0,1,7.34,1.27v.94A.62.62,0,0,0,8,2.83a.62.62,0,0,0,.62-.62V1.27a6.91,6.91,0,0,1,2.14.56.61.61,0,0,0,.82-.31A.62.62,0,0,0,11.23.7,7.95,7.95,0,0,0,1.35,12.37a.62.62,0,0,0,.52.28.66.66,0,0,0,.27-.06L3.41,12a.63.63,0,0,0,.29-.84A.63.63,0,0,0,2.87,10.85Z"/><path class="cls-3" d="M15.21,4.69a.61.61,0,0,0-.82-.31.62.62,0,0,0-.31.82,6.69,6.69,0,0,1-.27,6l-.8-.38A.62.62,0,1,0,12.48,12l1.3.62a.66.66,0,0,0,.27.06.63.63,0,0,0,.52-.28A7.91,7.91,0,0,0,15.91,8,7.81,7.81,0,0,0,15.21,4.69Z"/></g></g></svg>