<svg xmlns="http://www.w3.org/2000/svg" viewBox="0 0 47.98 47.98"><defs><style>.cls-1{fill:#dbddf3;}.cls-2{fill:#3c3e55;}</style></defs><title>vel boton sup</title><g id="Capa_2" data-name="Capa 2"><g id="Capa_120" data-name="Capa 120"><circle class="cls-1" cx="23.99" cy="23.99" r="23.99"/><path class="cls-2" d="M33.74,13.08a1.16,1.16,0,0,0-1.48-.14C30.52,14.12,21.8,20.08,20.87,21A3.49,3.49,0,0,0,25.8,26c.93-.94,6.89-9.66,8.08-11.4A1.17,1.17,0,0,0,33.74,13.08ZM24.15,24.31a1.16,1.16,0,0,1-1.64,0,1.18,1.18,0,0,1,0-1.65c.36-.36,2.84-2.12,5.89-4.24C26.28,21.47,24.51,23.94,24.15,24.31Z"/><path class="cls-2" d="M13.82,28.89l-1.44.7A12.47,12.47,0,0,1,11.6,19l1.64.79a1.1,1.1,0,0,0,.5.11,1.16,1.16,0,0,0,.51-2.21l-1.63-.78a12.59,12.59,0,0,1,9.55-6v1.75a1.16,1.16,0,0,0,2.32,0V11a12.33,12.33,0,0,1,4,1,1.16,1.16,0,1,0,1-2.12A14.86,14.86,0,0,0,11,31.74a1.17,1.17,0,0,0,1,.52,1.13,1.13,0,0,0,.51-.12L14.83,31a1.16,1.16,0,1,0-1-2.09Z"/><path class="cls-2" d="M36.89,17.37a1.16,1.16,0,1,0-2.11,1,12.55,12.55,0,0,1-.5,11.27l-1.5-.71a1.16,1.16,0,1,0-1,2.09l2.44,1.17a1.25,1.25,0,0,0,.5.11,1.15,1.15,0,0,0,1-.52,14.84,14.84,0,0,0,1.21-14.37Z"/></g></g></svg>