<svg xmlns="http://www.w3.org/2000/svg" viewBox="0 0 48.73 29.04"><defs><style>.cls-1{isolation:isolate;}.cls-2{mix-blend-mode:luminosity;}.cls-3{fill:#dbddf3;}</style></defs><title>virtual icon</title><g class="cls-1"><g id="Capa_2" data-name="Capa 2"><g id="Capa_160" data-name="Capa 160"><g class="cls-2"><path class="cls-3" d="M13.3,19.53a5.09,5.09,0,1,1,5.09-5.09A5.09,5.09,0,0,1,13.3,19.53Zm0-7.43a2.35,2.35,0,1,0,2.35,2.34A2.34,2.34,0,0,0,13.3,12.1Z"/><path class="cls-3" d="M35.43,19.53a5.09,5.09,0,1,1,5.09-5.09A5.09,5.09,0,0,1,35.43,19.53Zm0-7.43a2.35,2.35,0,1,0,2.35,2.34A2.34,2.34,0,0,0,35.43,12.1Z"/><path class="cls-3" d="M45.19,29H33.57c-2.95,0-4.51-.79-5.93-3l-2.16-3.39a1.5,1.5,0,0,0-2.22,0L21.09,26c-1.44,2.25-2.94,3-5.92,3H3.54A3.55,3.55,0,0,1,0,25.5V3.28A3.41,3.41,0,0,1,3.44,0H45.3a3.4,3.4,0,0,1,3.43,3.22V25.5A3.54,3.54,0,0,1,45.19,29ZM24.36,19.36a4.08,4.08,0,0,1,3.43,1.81L30,24.55c.85,1.34,1.46,1.75,3.62,1.75H45.19a.8.8,0,0,0,.8-.8V3.32a.68.68,0,0,0-.69-.58H3.44a.67.67,0,0,0-.7.61V25.5a.8.8,0,0,0,.8.8H15.17c2.17,0,2.75-.39,3.62-1.75L21,21.16A4.06,4.06,0,0,1,24.36,19.36Z"/></g></g></g></g></svg>