<?xml version="1.0" encoding="utf-8"?>
<!-- Generator: Adobe Illustrator 23.0.1, SVG Export Plug-In . SVG Version: 6.00 Build 0)  -->
<svg version="1.1" id="Capa_1" xmlns="http://www.w3.org/2000/svg" xmlns:xlink="http://www.w3.org/1999/xlink" x="0px" y="0px"
	 viewBox="0 0 85 85" style="enable-background:new 0 0 85 85;" xml:space="preserve">
<style type="text/css">
	.st0{fill:#FFFFFF;}
	.st1{fill:#26A6D1;}
	.st2{fill:#3DB39E;}
	.st3{fill:#EFC75E;}
	.st4{fill:#E2574C;}
</style>
<title>crhome</title>
<g id="Capa_34">
	<path class="st0" d="M42.5,85L42.5,85C19,85,0,66,0,42.5l0,0l0,0C0,19,19,0,42.5,0l0,0l0,0C66,0,85,19,85,42.5l0,0l0,0
		C85,66,66,85,42.5,85L42.5,85z"/>
	<path class="st1" d="M42.5,31.2c6.2,0,11.2,5,11.2,11.2s-5,11.2-11.2,11.2s-11.2-5-11.2-11.2c0,0,0,0,0,0
		C31.3,36.3,36.3,31.2,42.5,31.2C42.5,31.2,42.5,31.2,42.5,31.2z"/>
	<path class="st2" d="M42.5,57.5c-7.5,0-13.8-5.6-14.8-13L17.3,26.6l0,0l-1.2,1.7c-0.3,0.5-0.6,1-0.8,1.6l-0.6,1.3
		c-0.2,0.4-0.4,0.9-0.5,1.4s-0.3,1-0.5,1.6l-0.3,1.2c-0.1,0.6-0.3,1.1-0.4,1.7l-0.2,1.2c-0.1,0.6-0.2,1.1-0.2,1.6L12.6,41
		c0,0.5,0,1,0,1.5s0,1,0,1.5l0.1,1.3c0,0.6,0.1,1.1,0.2,1.6l0.2,1.2c0.1,0.6,0.2,1.1,0.4,1.7l0.3,1.2c0.2,0.5,0.3,1,0.5,1.6
		s0.3,0.9,0.5,1.4s0.3,0.9,0.6,1.3s0.5,1.1,0.8,1.6l0.4,0.7l0.2,0.3c0.3,0.6,0.7,1.1,1.1,1.6l0.6,0.9c0.4,0.5,0.7,0.9,1.1,1.4
		l0.8,0.9c0.3,0.4,0.7,0.7,1,1.1s0.7,0.7,1.1,1l0.9,0.8c0.5,0.4,0.9,0.8,1.4,1.1l0.9,0.6c0.5,0.4,1.1,0.7,1.6,1.1l0.3,0.2l0.7,0.4
		c0.5,0.3,1,0.6,1.6,0.8l0.2,0.1l0.8,0.3c2,0.9,4.1,1.5,6.3,1.9l8.5-14.8C44.6,57.3,43.5,57.5,42.5,57.5z"/>
	<path class="st3" d="M72.4,40.4v-0.5c-0.4-2.9-1.1-5.8-2.1-8.6H52.6c6.1,5.6,6.6,15.1,1,21.2c-0.5,0.6-1.1,1.1-1.8,1.7L41.3,72.5
		c4.2,0,8.4-0.7,12.3-2.1h0.1l0.2-0.1c1.2-0.5,2.5-1.1,3.6-1.8c1-0.6,2-1.3,3-2l0,0c0.9-0.7,1.8-1.4,2.6-2.2l0.1-0.1l0.4-0.4
		c1.8-1.8,3.4-3.8,4.7-6l0.1-0.2l0.3-0.5c0.4-0.7,0.8-1.5,1.1-2.3l0.5-1c0.3-0.7,0.5-1.5,0.8-2.2l0.3-1c0.3-1,0.5-2.1,0.7-3.2
		l0.1-0.6c0.1-0.9,0.2-1.8,0.3-2.8v-0.7C72.5,42.3,72.5,41.4,72.4,40.4z"/>
	<path class="st4" d="M68.5,27.5c-0.6-1.1-1.3-2.1-2.1-3.1l-0.2-0.3c-0.7-0.9-1.4-1.7-2.1-2.4l-0.5-0.5c-0.8-0.8-1.7-1.6-2.5-2.3
		l-0.2-0.2c-1-0.8-2-1.4-3.1-2.1l-0.2-0.1l-0.8-0.4c-0.5-0.2-0.9-0.5-1.4-0.7s-0.9-0.4-1.4-0.6l-1.2-0.5c-0.6-0.2-1.1-0.4-1.7-0.6
		l-1-0.3c-0.6-0.2-1.3-0.3-1.9-0.4l-0.9-0.2c-0.6-0.1-1.2-0.2-1.8-0.2l-1-0.1c-0.5,0-1,0-1.6,0h-1.3l-1,0.1
		c-2.3,0.2-4.5,0.6-6.7,1.2L33.3,14c-0.6,0.2-1.1,0.4-1.7,0.6L30.6,15c-0.5,0.2-0.9,0.4-1.3,0.6s-0.9,0.4-1.3,0.7l-0.5,0.2L26.8,17
		l-1.3,0.8c-0.4,0.3-0.8,0.6-1.2,0.9l-1,0.8c-0.4,0.4-0.8,0.7-1.2,1.1l-0.8,0.7c-0.5,0.4-0.9,0.9-1.3,1.4l-0.3,0.3l8.5,14.8
		c2-6.2,7.8-10.3,14.3-10.3L68.5,27.5z"/>
</g>
</svg>
