<?xml version="1.0" encoding="utf-8"?>
<!-- Generator: Adobe Illustrator 23.0.1, SVG Export Plug-In . SVG Version: 6.00 Build 0)  -->
<svg version="1.1" id="Capa_1" xmlns="http://www.w3.org/2000/svg" xmlns:xlink="http://www.w3.org/1999/xlink" x="0px" y="0px"
	 viewBox="0 0 85 85" style="enable-background:new 0 0 85 85;" xml:space="preserve">
<style type="text/css">
	.st0{fill:url(#SVGID_1_);}
	.st1{fill:#FFFFFF;}
</style>
<title>skype</title>
<g id="Capa_30">
	
		<linearGradient id="SVGID_1_" gradientUnits="userSpaceOnUse" x1="42.5" y1="-3001.8662" x2="42.5" y2="-2916.8662" gradientTransform="matrix(1 0 0 -1 0 -2916.8662)">
		<stop  offset="0" style="stop-color:#008CD3"/>
		<stop  offset="0.5" style="stop-color:#00A0E4"/>
		<stop  offset="1" style="stop-color:#47C1F0"/>
	</linearGradient>
	<path class="st0" d="M42.5,85L42.5,85C19,85,0,66,0,42.5l0,0l0,0C0,19,19,0,42.5,0l0,0l0,0C66,0,85,19,85,42.5l0,0l0,0
		C85,66,66,85,42.5,85L42.5,85z"/>
	<path class="st1" d="M18.8,42.5c0,13.1,10.6,23.7,23.7,23.7c1.5,0,3-0.1,4.4-0.4c6.5,3.9,15,1.8,19-4.7c2.7-4.4,2.6-10-0.1-14.4
		c0.2-1.4,0.4-2.7,0.4-4.1c0-13.1-10.6-23.7-23.7-23.7c-1.5,0-2.9,0.1-4.4,0.4c-6.5-4-15-1.9-19,4.6c-2.7,4.4-2.7,10,0,14.4
		C18.9,39.7,18.8,41.1,18.8,42.5z M42.7,25.7c7.6,0.4,12.1,3.8,12.5,6.9c0.2,1.8-1,3.4-2.7,3.6c-0.3,0-0.5,0-0.8,0
		c-3.5,0-3.8-4.6-9.8-4.6c-2.7,0-4.9,1.1-4.9,3.5c0,5.1,19.1,2.1,19.1,13.2c0,6.4-5.1,10.6-12.8,10.6c-6.7,0-13.5-3.1-13.5-8.3
		c0-1.6,1.2-2.9,2.8-3c4,0,3.9,5.9,10.2,5.9c4.4,0,5.9-2.4,5.9-4.1c0-6.1-19.2-2.4-19.2-13.8C29.6,29.5,34.7,25.2,42.7,25.7
		L42.7,25.7z"/>
</g>
</svg>
