<?xml version="1.0" encoding="utf-8"?>
<!-- Generator: Adobe Illustrator 23.0.1, SVG Export Plug-In . SVG Version: 6.00 Build 0)  -->
<svg version="1.1" id="Capa_1" xmlns="http://www.w3.org/2000/svg" xmlns:xlink="http://www.w3.org/1999/xlink" x="0px" y="0px"
	 viewBox="0 0 85 85" style="enable-background:new 0 0 85 85;" xml:space="preserve">
<style type="text/css">
	.st0{fill:url(#SVGID_1_);}
	.st1{fill:#FFFFFF;}
</style>
<title>spotify</title>
<g id="Capa_33">
	
		<linearGradient id="SVGID_1_" gradientUnits="userSpaceOnUse" x1="41.733" y1="-2916.4268" x2="43.153" y2="-2995.9268" gradientTransform="matrix(1 0 0 -1 0 -2916.8662)">
		<stop  offset="0" style="stop-color:#6CBB83"/>
		<stop  offset="0.5" style="stop-color:#009640"/>
		<stop  offset="1" style="stop-color:#00863E"/>
	</linearGradient>
	<path class="st0" d="M42.5,85L42.5,85C19,85,0,66,0,42.5l0,0l0,0C0,19,19,0,42.5,0l0,0l0,0C66,0,85,19,85,42.5l0,0l0,0
		C85,66,66,85,42.5,85L42.5,85z"/>
	<path class="st1" d="M42.5,17.7c-13.7,0-24.9,11.1-24.9,24.8c0,13.7,11.1,24.9,24.8,24.9c13.7,0,24.9-11.1,24.9-24.8c0,0,0,0,0,0
		C67.3,28.8,56.2,17.7,42.5,17.7z M53.9,53.6c-0.4,0.7-1.3,1-2,0.5c0,0-0.1,0-0.1-0.1C46,50.4,38.7,49.7,30,51.7
		c-0.8,0.2-1.6-0.3-1.9-1.1c-0.2-0.8,0.3-1.6,1.1-1.9c9.5-2.1,17.7-1.2,24.1,2.7c0.8,0.3,1.1,1.2,0.7,2C54,53.5,54,53.5,53.9,53.6
		L53.9,53.6z M56.9,46.7c-0.5,0.9-1.7,1.2-2.6,0.6c0,0,0,0,0,0c-6.7-4.1-16.9-5.4-24.7-2.9c-1,0.3-2.1-0.3-2.4-1.3
		c-0.3-1,0.3-2,1.2-2.3c9.1-2.7,20.2-1.4,28,3.4C57.3,44.8,57.5,45.9,56.9,46.7C57,46.7,57,46.7,56.9,46.7L56.9,46.7z M57.2,39.8
		c-8-4.7-21.2-5.2-28.8-2.9c-1.2,0.3-2.5-0.4-2.8-1.6c-0.3-1.2,0.3-2.4,1.4-2.8c8.8-2.6,23.3-2.1,32.5,3.4c1.1,0.7,1.5,2.1,0.9,3.2
		C59.6,40.1,58.3,40.3,57.2,39.8L57.2,39.8z"/>
</g>
</svg>
