<svg xmlns="http://www.w3.org/2000/svg" xmlns:xlink="http://www.w3.org/1999/xlink" viewBox="0 0 85 85"><defs><style>.cls-1{fill:url(#Degradado_sin_nombre_34);}.cls-2{fill:#fff;}.cls-3{fill:url(#Degradado_sin_nombre_34-2);}</style><linearGradient id="Degradado_sin_nombre_34" x1="42.5" y1="85" x2="42.5" gradientUnits="userSpaceOnUse"><stop offset="0" stop-color="#cb181a"/><stop offset="0.5" stop-color="#e30613"/><stop offset="1" stop-color="#ef7b5a"/></linearGradient><linearGradient id="Degradado_sin_nombre_34-2" x1="43.93" y1="49.99" x2="43.93" y2="35.01" xlink:href="#Degradado_sin_nombre_34"/></defs><title>youtube boton</title><g id="Capa_2" data-name="Capa 2"><g id="Capa_32" data-name="Capa 32"><rect class="cls-1" width="85" height="85" rx="42.5"/><path class="cls-2" d="M66.64,30.29a6.32,6.32,0,0,0-4.45-4.48c-3.93-1.06-19.69-1.06-19.69-1.06s-15.76,0-19.69,1.06a6.32,6.32,0,0,0-4.45,4.48c-1.06,4-1.06,12.21-1.06,12.21s0,8.25,1.06,12.21a6.32,6.32,0,0,0,4.45,4.48c3.93,1.06,19.69,1.06,19.69,1.06s15.76,0,19.69-1.06a6.32,6.32,0,0,0,4.45-4.48c1.06-4,1.06-12.21,1.06-12.21S67.7,34.25,66.64,30.29Z"/><polygon class="cls-3" points="37.35 49.99 37.35 35.01 50.52 42.5 37.35 49.99"/></g></g></svg>