<svg xmlns="http://www.w3.org/2000/svg" xmlns:xlink="http://www.w3.org/1999/xlink" viewBox="0 0 30.76 30.76"><defs><style>.cls-1{isolation:isolate;}.cls-2{fill:#dbddf3;mix-blend-mode:luminosity;}.cls-3{fill:url(#degrade_claro_5);}</style><linearGradient id="degrade_claro_5" x1="8.58" y1="16.18" x2="22.18" y2="16.18" gradientUnits="userSpaceOnUse"><stop offset="0" stop-color="#3c3e55"/><stop offset="0.21" stop-color="#393b50"/><stop offset="0.47" stop-color="#2f3142"/><stop offset="0.74" stop-color="#20202a"/><stop offset="1" stop-color="#0c0c0c"/></linearGradient></defs><title>boton adelante reprod</title><g class="cls-1"><g id="Capa_2" data-name="Capa 2"><g id="Capa_146" data-name="Capa 146"><circle class="cls-2" cx="15.38" cy="15.38" r="15.38"/><path class="cls-3" d="M21.15,8.87a1,1,0,0,0-1,1v4.54L10.1,9a1,1,0,0,0-1,0,1,1,0,0,0-.5.88V22.45a1,1,0,0,0,1.52.91l10-5.44v4.53a1,1,0,0,0,2.07,0V9.9A1,1,0,0,0,21.15,8.87ZM10.64,20.72V11.64L19,16.18Z"/></g></g></g></svg>