<svg xmlns="http://www.w3.org/2000/svg" xmlns:xlink="http://www.w3.org/1999/xlink" viewBox="0 0 30.76 30.76"><defs><style>.cls-1{isolation:isolate;}.cls-2{fill:#dbddf3;mix-blend-mode:luminosity;}.cls-3{fill:url(#degrade_claro_5);}</style><linearGradient id="degrade_claro_5" x1="8.58" y1="16.18" x2="22.18" y2="16.18" gradientUnits="userSpaceOnUse"><stop offset="0" stop-color="#3c3e55"/><stop offset="0.21" stop-color="#393b50"/><stop offset="0.47" stop-color="#2f3142"/><stop offset="0.74" stop-color="#20202a"/><stop offset="1" stop-color="#0c0c0c"/></linearGradient></defs><title>boton atras reprod</title><g class="cls-1"><g id="Capa_2" data-name="Capa 2"><g id="Capa_144" data-name="Capa 144"><circle class="cls-2" cx="15.38" cy="15.38" r="15.38"/><path class="cls-3" d="M21.67,9a1,1,0,0,0-1,0l-10,5.44V9.9a1,1,0,1,0-2.06,0V22.45a1,1,0,0,0,2.06,0V17.92l10,5.44a1.11,1.11,0,0,0,.5.12,1,1,0,0,0,.52-.14,1,1,0,0,0,.51-.89V9.9A1,1,0,0,0,21.67,9Zm-1.56,11.7-8.34-4.54,8.34-4.54Z"/></g></g></g></svg>