<svg xmlns="http://www.w3.org/2000/svg" xmlns:xlink="http://www.w3.org/1999/xlink" viewBox="0 0 121.58 121.57"><defs><style>.cls-1{isolation:isolate;}.cls-2{fill:#3c3e55;}.cls-3{fill:none;stroke-miterlimit:10;stroke-width:3.92px;opacity:0.5;stroke:url(#Degradado_sin_nombre_7);}.cls-4{mix-blend-mode:luminosity;}.cls-5{fill:#dbddf3;}</style><linearGradient id="Degradado_sin_nombre_7" x1="60.79" y1="110.32" x2="60.79" y2="11.25" gradientUnits="userSpaceOnUse"><stop offset="0" stop-color="#00d1fc"/><stop offset="0.33" stop-color="#30a5fd"/><stop offset="0.78" stop-color="#6c6dfe"/><stop offset="1" stop-color="#8457ff"/></linearGradient></defs><title>años</title><g class="cls-1"><g id="Capa_2" data-name="Capa 2"><g id="Capa_93" data-name="Capa 93"><circle class="cls-2" cx="60.79" cy="60.79" r="60.79"/><circle class="cls-3" cx="60.79" cy="60.79" r="47.58"/><g class="cls-4"><path class="cls-5" d="M48.39,85.09l-.66-1.56H44.11l-.66,1.56H42l3.25-7.41H46.7l3.21,7.41Zm-3.77-2.78h2.6l-1.29-3.12Z"/><path class="cls-5" d="M57.57,77.68H59v7.41H57.61L53.79,80v5.1H52.4V77.68h1.35l3.82,5.11Zm-1-.61a1.12,1.12,0,0,1-.45-.08,3.44,3.44,0,0,1-.48-.23,1.21,1.21,0,0,0-.48-.19.22.22,0,0,0-.22.12.8.8,0,0,0-.07.35H54c0-1,.31-1.49.93-1.49a1.42,1.42,0,0,1,.45.08,5.34,5.34,0,0,1,.48.24,1.26,1.26,0,0,0,.48.19.23.23,0,0,0,.22-.12.85.85,0,0,0,.06-.35h.89C57.54,76.58,57.23,77.07,56.61,77.07Z"/><path class="cls-5" d="M67.74,78.08a3.8,3.8,0,0,1,1.42,5.23,3.77,3.77,0,0,1-1.42,1.38,4.22,4.22,0,0,1-4,0,3.77,3.77,0,0,1-1.42-1.38,3.77,3.77,0,0,1,1.42-5.23,4.29,4.29,0,0,1,4,0Zm-3.25,1.11a2.49,2.49,0,0,0-1.26,2.19,2.48,2.48,0,0,0,.34,1.28,2.56,2.56,0,0,0,.93.92,2.47,2.47,0,0,0,1.25.34A2.43,2.43,0,0,0,67,83.58a2.51,2.51,0,0,0,1.24-2.2,2.52,2.52,0,0,0-.33-1.28,2.48,2.48,0,0,0-.91-.91,2.34,2.34,0,0,0-1.24-.34A2.43,2.43,0,0,0,64.49,79.19Z"/><path class="cls-5" d="M76,79A3.78,3.78,0,0,0,75,78.85a1.56,1.56,0,0,0-.81.19.6.6,0,0,0-.29.53.69.69,0,0,0,.2.52,1.62,1.62,0,0,0,.52.34,9,9,0,0,0,.85.29,10.56,10.56,0,0,1,1.24.44,2.26,2.26,0,0,1,.82.66A1.78,1.78,0,0,1,77.83,83a1.94,1.94,0,0,1-.37,1.19,2.27,2.27,0,0,1-1,.76,3.78,3.78,0,0,1-1.47.27,4.75,4.75,0,0,1-1.7-.32A4.94,4.94,0,0,1,71.85,84l.6-1.21a4.21,4.21,0,0,0,1.26.82,3.29,3.29,0,0,0,1.3.3,1.64,1.64,0,0,0,.93-.23.7.7,0,0,0,.34-.62.72.72,0,0,0-.21-.53,1.66,1.66,0,0,0-.52-.33,9.14,9.14,0,0,0-.87-.28,11,11,0,0,1-1.23-.44,2.08,2.08,0,0,1-.81-.64,1.75,1.75,0,0,1-.34-1.13,1.89,1.89,0,0,1,.34-1.13,2.19,2.19,0,0,1,1-.74,3.64,3.64,0,0,1,1.45-.27,4.91,4.91,0,0,1,2.68.79l-.57,1.23A5.6,5.6,0,0,0,76,79Z"/></g><path class="cls-5" d="M59.68,51.26A6.49,6.49,0,1,0,54.37,46,6.5,6.5,0,0,0,59.68,51.26Z"/><path class="cls-5" d="M73.54,61A4.77,4.77,0,0,0,73.43,60c-1.21-5.25-6.41-6.37-12.65-6.37-5.52,0-10.21.88-12.07,4.69A7.33,7.33,0,0,0,48,61.51V63.8a18.57,18.57,0,0,0,25.52,0S73.54,62,73.54,61Z"/></g></g></g></svg>