<?xml version="1.0" encoding="utf-8"?>
<!-- Generator: Adobe Illustrator 23.0.1, SVG Export Plug-In . SVG Version: 6.00 Build 0)  -->
<svg version="1.1" id="Capa_1" xmlns="http://www.w3.org/2000/svg" xmlns:xlink="http://www.w3.org/1999/xlink" x="0px" y="0px"
	 viewBox="0 0 19.1 17.5" style="enable-background:new 0 0 19.1 17.5;" xml:space="preserve">
<style type="text/css">
	.st0{fill:url(#SVGID_1_);}
</style>
<title>corazon</title>
<g id="Capa_4">
	
		<linearGradient id="SVGID_1_" gradientUnits="userSpaceOnUse" x1="9.5718" y1="-1418.796" x2="9.5718" y2="-1401.2656" gradientTransform="matrix(1 0 0 -1 0 -1401.2656)">
		<stop  offset="0" style="stop-color:#8457FF"/>
		<stop  offset="0.22" style="stop-color:#6C6DFE"/>
		<stop  offset="0.67" style="stop-color:#30A5FD"/>
		<stop  offset="1" style="stop-color:#00D1FC"/>
	</linearGradient>
	<path class="st0" d="M9.5,17.5c-0.5,0-0.9-0.2-1.3-0.5l-5.4-4.9C1.5,11,0.6,9.4,0.2,7.7C0,7,0,6.3,0,5.5c0.1-3,2.5-5.4,5.5-5.5
		c1.5,0,3,0.6,4,1.8c1-1.1,2.5-1.8,4-1.8c2.9,0,5.2,2.3,5.5,5.6c0.1,0.7,0,1.4-0.2,2.1c-0.4,1.7-1.3,3.3-2.7,4.5L10.8,17
		C10.4,17.4,10,17.5,9.5,17.5z M5.5,1.6c-2.1,0-3.8,1.8-4,4.2c-0.1,0.5,0,1.1,0.1,1.6C2,8.7,2.8,10,3.9,11l5.4,4.9
		c0.1,0.1,0.3,0.1,0.4,0l5.5-4.9c1.1-1,1.8-2.2,2.2-3.6c0.1-0.5,0.2-1,0.1-1.6l0,0c-0.2-2.4-1.9-4.2-4-4.2c-1.3,0-2.5,0.7-3.2,1.7
		C10,3.6,9.7,3.8,9.4,3.8c-0.3,0-0.6-0.2-0.8-0.4C7.9,2.3,6.8,1.6,5.5,1.6L5.5,1.6z"/>
</g>
</svg>
