<svg xmlns="http://www.w3.org/2000/svg" xmlns:xlink="http://www.w3.org/1999/xlink" viewBox="0 0 89.45 89.45"><defs><style>.cls-1{isolation:isolate;}.cls-2{fill:#3c3e55;}.cls-3{fill:none;stroke-miterlimit:10;stroke-width:2px;opacity:0.54;stroke:url(#Degradado_sin_nombre_7);}.cls-4{mix-blend-mode:luminosity;}.cls-5{fill:url(#degrade_claro_2);}</style><linearGradient id="Degradado_sin_nombre_7" x1="44.73" y1="80.73" x2="44.73" y2="8.72" gradientUnits="userSpaceOnUse"><stop offset="0" stop-color="#00d1fc"/><stop offset="0.33" stop-color="#30a5fd"/><stop offset="0.78" stop-color="#6c6dfe"/><stop offset="1" stop-color="#8457ff"/></linearGradient><linearGradient id="degrade_claro_2" x1="44.73" y1="57.71" x2="44.73" y2="31.74" gradientUnits="userSpaceOnUse"><stop offset="0" stop-color="#dbddf3"/><stop offset="0.15" stop-color="#d8d8f3"/><stop offset="0.33" stop-color="#cecaf5"/><stop offset="0.52" stop-color="#bfb2f7"/><stop offset="0.73" stop-color="#a990fa"/><stop offset="0.94" stop-color="#8e66fe"/><stop offset="1" stop-color="#8457ff"/></linearGradient></defs><title>corazon borde y fondo</title><g class="cls-1"><g id="Capa_2" data-name="Capa 2"><g id="Capa_83" data-name="Capa 83"><circle class="cls-2" cx="44.73" cy="44.73" r="44.73"/><circle class="cls-3" cx="44.73" cy="44.73" r="35.01"/><g class="cls-4"><path class="cls-5" d="M44.66,57.71A2.77,2.77,0,0,1,42.77,57l-8-7.23a13,13,0,0,1-4-6.61,8.48,8.48,0,0,1-.24-3.2c.43-4.72,3.88-8.2,8.2-8.2a7.77,7.77,0,0,1,5.87,2.66,8.12,8.12,0,0,1,6-2.66c4.31,0,7.76,3.47,8.21,8.25a8.76,8.76,0,0,1-.25,3.15,13,13,0,0,1-4,6.61L46.53,57A2.78,2.78,0,0,1,44.66,57.71ZM38.8,34.09c-3.08,0-5.55,2.58-5.87,6.14a6.42,6.42,0,0,0,.19,2.37A10.66,10.66,0,0,0,36.37,48l8,7.23a.47.47,0,0,0,.63,0L53.09,48a10.64,10.64,0,0,0,3.24-5.4,6.14,6.14,0,0,0,.2-2.29v-.08c-.32-3.56-2.79-6.14-5.87-6.14a5.82,5.82,0,0,0-4.78,2.55,1.5,1.5,0,0,1-1.22.64,1.47,1.47,0,0,1-1.22-.65A5.51,5.51,0,0,0,38.8,34.09Zm5.14,1.22h0Z"/></g></g></g></g></svg>