<svg xmlns="http://www.w3.org/2000/svg" xmlns:xlink="http://www.w3.org/1999/xlink" viewBox="0 0 15.03 18.17"><defs><style>.cls-1{fill:url(#Nueva_muestra_de_degradado_2);}.cls-2{fill:url(#Nueva_muestra_de_degradado_2-2);}</style><linearGradient id="Nueva_muestra_de_degradado_2" x1="7.42" y1="-0.03" x2="7.88" y2="18.53" gradientUnits="userSpaceOnUse"><stop offset="0" stop-color="#8457ff"/><stop offset="0.22" stop-color="#6c6dfe"/><stop offset="0.67" stop-color="#30a5fd"/><stop offset="1" stop-color="#00d1fc"/></linearGradient><linearGradient id="Nueva_muestra_de_degradado_2-2" x1="7.16" y1="-0.03" x2="7.62" y2="18.54" xlink:href="#Nueva_muestra_de_degradado_2"/></defs><title>creador icon</title><g id="Capa_2" data-name="Capa 2"><g id="Capa_77" data-name="Capa 77"><path class="cls-1" d="M7.51,1.41A2.46,2.46,0,1,1,5.06,3.87,2.46,2.46,0,0,1,7.51,1.41M7.51,0a3.87,3.87,0,1,0,3.87,3.87A3.86,3.86,0,0,0,7.51,0Z"/><path class="cls-2" d="M7.51,10.48c3.06,0,4.86.5,5.67,1.59a2.6,2.6,0,0,1,.43,1.53v1a9.62,9.62,0,0,1-12.2,0v-1a2.61,2.61,0,0,1,.44-1.53c.81-1.09,2.61-1.59,5.66-1.59m0-1.42c-2.95,0-5.5.43-6.79,2.17A3.89,3.89,0,0,0,0,13.6v1.62a11,11,0,0,0,15,0V13.6a4,4,0,0,0-.72-2.37C13,9.49,10.47,9.06,7.51,9.06Z"/></g></g></svg>