<svg xmlns="http://www.w3.org/2000/svg" xmlns:xlink="http://www.w3.org/1999/xlink" viewBox="0 0 106 106"><defs><style>.cls-1{isolation:isolate;}.cls-2{mix-blend-mode:luminosity;}.cls-3{fill:#dbddf3;}.cls-4{fill:none;stroke-miterlimit:10;stroke-width:3.62px;opacity:0.54;stroke:url(#Degradado_sin_nombre_7);}</style><linearGradient id="Degradado_sin_nombre_7" x1="53" y1="106" x2="53" gradientUnits="userSpaceOnUse"><stop offset="0" stop-color="#00d1fc"/><stop offset="0.33" stop-color="#30a5fd"/><stop offset="0.78" stop-color="#6c6dfe"/><stop offset="1" stop-color="#8457ff"/></linearGradient></defs><title>finalizar boton</title><g class="cls-1"><g id="Capa_2" data-name="Capa 2"><g id="Capa_123" data-name="Capa 123"><g class="cls-2"><path class="cls-3" d="M59.93,76H39.44a1.11,1.11,0,0,1-1.06-1V33a1,1,0,0,1,1.06-.89H59.93a2,2,0,0,0,0-3.92H39.44a4.91,4.91,0,0,0-5,4.81V75a5,5,0,0,0,5,4.94H59.93a2,2,0,0,0,0-3.92Z"/><path class="cls-3" d="M76,52.17l-8.78-9.75a2,2,0,0,0-1.35-.65,1.92,1.92,0,0,0-1.41.5,2,2,0,0,0-.65,1.37,2,2,0,0,0,.5,1.43l5.84,6.52h-20a2,2,0,0,0,0,3.92H69.83l-5.43,5.4a1.95,1.95,0,1,0,2.77,2.74L76,54.87A2,2,0,0,0,76,52.17Z"/></g><path class="cls-4" d="M103.64,45.5a51.26,51.26,0,1,0,.54,7.5A51.21,51.21,0,0,0,103.64,45.5Z"/></g></g></g></svg>