<svg xmlns="http://www.w3.org/2000/svg" xmlns:xlink="http://www.w3.org/1999/xlink" viewBox="0 0 134.01 134.01"><defs><style>.cls-1{isolation:isolate;}.cls-2{fill:#3c3e55;}.cls-3,.cls-5{opacity:0.7;mix-blend-mode:luminosity;}.cls-3{fill:url(#degrade_claro_2);}.cls-4{fill:#dbddf3;}.cls-5{fill:url(#degrade_claro_2-2);}.cls-6{fill:none;stroke-miterlimit:10;stroke-width:2.27px;opacity:0.5;stroke:url(#Degradado_sin_nombre_7);}</style><linearGradient id="degrade_claro_2" x1="55.31" y1="88.07" x2="78.71" y2="64.68" gradientUnits="userSpaceOnUse"><stop offset="0" stop-color="#dbddf3"/><stop offset="0.15" stop-color="#d8d8f3"/><stop offset="0.33" stop-color="#cecaf5"/><stop offset="0.52" stop-color="#bfb2f7"/><stop offset="0.73" stop-color="#a990fa"/><stop offset="0.94" stop-color="#8e66fe"/><stop offset="1" stop-color="#8457ff"/></linearGradient><linearGradient id="degrade_claro_2-2" x1="57.37" y1="66.89" x2="76.63" y2="47.62" xlink:href="#degrade_claro_2"/><linearGradient id="Degradado_sin_nombre_7" x1="-8620.08" y1="-6030.16" x2="-8620.08" y2="-5925.51" gradientTransform="translate(-8553.07 -5910.83) rotate(180)" gradientUnits="userSpaceOnUse"><stop offset="0" stop-color="#00d1fc"/><stop offset="0.33" stop-color="#30a5fd"/><stop offset="0.78" stop-color="#6c6dfe"/><stop offset="1" stop-color="#8457ff"/></linearGradient></defs><title>boton app footer</title><g class="cls-1"><g id="Capa_2" data-name="Capa 2"><g id="Capa_135" data-name="Capa 135"><circle class="cls-2" cx="67.01" cy="67.01" r="67.01"/><path class="cls-3" d="M83.07,77A16.06,16.06,0,1,1,51,77V69H83.07Z"/><path class="cls-4" d="M85,66.11H49a1,1,0,0,0-1,1v9.46a19.24,19.24,0,0,0,18.5,19.38A18.88,18.88,0,0,0,86,77V67.1A1,1,0,0,0,85,66.11ZM83.07,77A16.06,16.06,0,1,1,51,77V69H83.07Z"/><path class="cls-5" d="M51,60.48l0-.54a16,16,0,0,1,32,0l0,.54Z"/><path class="cls-4" d="M78.12,45.51,82.66,41a1.63,1.63,0,0,0,.16-2.16,1.54,1.54,0,0,0-1.17-.54,1.51,1.51,0,0,0-1.08.45l-5.16,5.15A17.55,17.55,0,0,0,67,41.71a21.13,21.13,0,0,0-8.41,1.9l-5.08-5.09a1.55,1.55,0,0,0-1.09-.45,1.56,1.56,0,0,0-1.15.52l-.12.14a1.54,1.54,0,0,0,.06,2.11l4.67,4.67A18.14,18.14,0,0,0,48,60.69v1.73a1,1,0,0,0,1,1H85a1,1,0,0,0,1-1V60.69A18.13,18.13,0,0,0,78.12,45.51ZM51,60.48l0-.54a16,16,0,0,1,32,0l0,.54Z"/><circle class="cls-6" cx="67.01" cy="67.01" r="51.19"/><path class="cls-4" d="M59.56,53.1a2.17,2.17,0,1,0,2.17,2.17A2.05,2.05,0,0,0,59.56,53.1Z"/><path class="cls-4" d="M74.45,53.1a2.17,2.17,0,1,0,2.17,2.17A2,2,0,0,0,74.45,53.1Z"/></g></g></g></svg>