<svg xmlns="http://www.w3.org/2000/svg" xmlns:xlink="http://www.w3.org/1999/xlink" viewBox="0 0 16.22 16.27"><defs><style>.cls-1{fill:url(#Nueva_muestra_de_degradado_2);}.cls-2{fill:url(#Nueva_muestra_de_degradado_2-2);}.cls-3{fill:url(#Nueva_muestra_de_degradado_2-3);}</style><linearGradient id="Nueva_muestra_de_degradado_2" x1="8.16" y1="-0.16" x2="7.75" y2="15.25" gradientUnits="userSpaceOnUse"><stop offset="0" stop-color="#8457ff"/><stop offset="0.22" stop-color="#6c6dfe"/><stop offset="0.67" stop-color="#30a5fd"/><stop offset="1" stop-color="#00d1fc"/></linearGradient><linearGradient id="Nueva_muestra_de_degradado_2-2" x1="8.49" y1="-0.15" x2="8.09" y2="15.25" xlink:href="#Nueva_muestra_de_degradado_2"/><linearGradient id="Nueva_muestra_de_degradado_2-3" x1="8.33" y1="-0.15" x2="7.92" y2="15.25" xlink:href="#Nueva_muestra_de_degradado_2"/></defs><title>niveles icon</title><g id="Capa_2" data-name="Capa 2"><g id="Capa_3" data-name="Capa 3"><path class="cls-1" d="M1.76,3.52a1.75,1.75,0,0,0,1.56-1h12.1a.8.8,0,0,0,0-1.6H3.32A1.76,1.76,0,1,0,1.76,3.52Z"/><path class="cls-2" d="M14.45,12.75a1.75,1.75,0,0,0-1.56,1H.8a.8.8,0,0,0,0,1.6H12.89a1.76,1.76,0,1,0,1.56-2.56Z"/><path class="cls-3" d="M15.42,7.33H9.67a1.75,1.75,0,0,0-3.12,0H.8a.8.8,0,0,0,0,1.6H6.55a1.74,1.74,0,0,0,3.12,0h5.75a.8.8,0,1,0,0-1.6Z"/></g></g></svg>