<svg xmlns="http://www.w3.org/2000/svg" xmlns:xlink="http://www.w3.org/1999/xlink" viewBox="0 0 19.45 19.45"><defs><style>.cls-1{fill:url(#Nueva_muestra_de_degradado_2);}.cls-2{fill:url(#Nueva_muestra_de_degradado_2-2);}.cls-3{fill:url(#Nueva_muestra_de_degradado_2-3);}</style><linearGradient id="Nueva_muestra_de_degradado_2" x1="9.35" y1="-0.07" x2="10.08" y2="19.07" gradientUnits="userSpaceOnUse"><stop offset="0" stop-color="#8457ff"/><stop offset="0.22" stop-color="#6c6dfe"/><stop offset="0.67" stop-color="#30a5fd"/><stop offset="1" stop-color="#00d1fc"/></linearGradient><linearGradient id="Nueva_muestra_de_degradado_2-2" x1="9.35" y1="-0.07" x2="10.08" y2="19.07" xlink:href="#Nueva_muestra_de_degradado_2"/><linearGradient id="Nueva_muestra_de_degradado_2-3" x1="9.35" y1="-0.07" x2="10.08" y2="19.07" xlink:href="#Nueva_muestra_de_degradado_2"/></defs><title>objetivos icon</title><g id="Capa_2" data-name="Capa 2"><g id="Capa_179" data-name="Capa 179"><path class="cls-1" d="M18.14,4.84A9.67,9.67,0,0,0,14.61,1.3,9.52,9.52,0,0,0,9.72,0,9.51,9.51,0,0,0,4.84,1.3,9.69,9.69,0,0,0,1.3,4.84,9.51,9.51,0,0,0,0,9.72a9.52,9.52,0,0,0,1.3,4.89,9.67,9.67,0,0,0,3.54,3.53,9.52,9.52,0,0,0,4.88,1.31,9.53,9.53,0,0,0,4.89-1.31,9.64,9.64,0,0,0,3.53-3.53,9.53,9.53,0,0,0,1.31-4.89A9.52,9.52,0,0,0,18.14,4.84Zm-.38,8.27A8.74,8.74,0,0,1,15.9,15.9a8.91,8.91,0,0,1-2.79,1.86,8.56,8.56,0,0,1-6.78,0A9,9,0,0,1,3.55,15.9a8.74,8.74,0,0,1-1.86-2.79,8.56,8.56,0,0,1,0-6.78A8.6,8.6,0,0,1,6.33,1.69a8.56,8.56,0,0,1,6.78,0A8.74,8.74,0,0,1,15.9,3.55a8.81,8.81,0,0,1,1.86,2.78,8.56,8.56,0,0,1,0,6.78Z"/><path class="cls-2" d="M9.72,3.24a6.23,6.23,0,0,0-4.58,1.9,6.23,6.23,0,0,0-1.9,4.58,6.25,6.25,0,0,0,1.9,4.59,6.27,6.27,0,0,0,4.58,1.9,6.29,6.29,0,0,0,4.59-1.9,6.29,6.29,0,0,0,1.9-4.59,6.27,6.27,0,0,0-1.9-4.58A6.25,6.25,0,0,0,9.72,3.24Zm3.87,10.35a5.27,5.27,0,0,1-3.87,1.6,5.25,5.25,0,0,1-3.86-1.6,5.27,5.27,0,0,1-1.6-3.87,5.25,5.25,0,0,1,1.6-3.86,5.26,5.26,0,0,1,3.86-1.6,5.27,5.27,0,0,1,3.87,1.6,5.25,5.25,0,0,1,1.6,3.86A5.27,5.27,0,0,1,13.59,13.59Z"/><path class="cls-3" d="M9.72,6.68a3,3,0,0,0-3,3,3,3,0,0,0,3,3,3,3,0,0,0,3-3,3,3,0,0,0-3-3Z"/></g></g></svg>