<svg xmlns="http://www.w3.org/2000/svg" xmlns:xlink="http://www.w3.org/1999/xlink" viewBox="0 0 106 106"><defs><style>.cls-1{isolation:isolate;}.cls-2{fill:none;stroke-miterlimit:10;stroke-width:3.62px;opacity:0.54;stroke:url(#Degradado_sin_nombre_7);}.cls-3{fill:#dbddf3;mix-blend-mode:luminosity;}</style><linearGradient id="Degradado_sin_nombre_7" x1="53" y1="106" x2="53" gradientUnits="userSpaceOnUse"><stop offset="0" stop-color="#00d1fc"/><stop offset="0.33" stop-color="#30a5fd"/><stop offset="0.78" stop-color="#6c6dfe"/><stop offset="1" stop-color="#8457ff"/></linearGradient></defs><title>persona boton</title><g class="cls-1"><g id="Capa_2" data-name="Capa 2"><g id="Capa_164" data-name="Capa 164"><path class="cls-2" d="M103.64,45.5a51.26,51.26,0,1,0,.54,7.5A51.21,51.21,0,0,0,103.64,45.5Z"/><path class="cls-3" d="M51.41,56.65a9.27,9.27,0,1,0-7.57-7.57A9.28,9.28,0,0,0,51.41,56.65Z"/><path class="cls-3" d="M71.21,70.59a7.06,7.06,0,0,0-.15-1.52C69.33,61.58,61.91,60,53,60c-7.87,0-14.58,1.26-17.23,6.7a10.49,10.49,0,0,0-1,4.62v3.27a26.53,26.53,0,0,0,36.46,0S71.22,71.93,71.21,70.59Z"/></g></g></g></svg>