<svg xmlns="http://www.w3.org/2000/svg" xmlns:xlink="http://www.w3.org/1999/xlink" viewBox="0 0 121.58 121.57"><defs><style>.cls-1{isolation:isolate;}.cls-2{fill:#3c3e55;}.cls-3{fill:none;stroke-miterlimit:10;stroke-width:3.92px;opacity:0.5;stroke:url(#Degradado_sin_nombre_7);}.cls-4{mix-blend-mode:luminosity;}.cls-5{fill:#dbddf3;}</style><linearGradient id="Degradado_sin_nombre_7" x1="60.79" y1="110.32" x2="60.79" y2="11.25" gradientUnits="userSpaceOnUse"><stop offset="0" stop-color="#00d1fc"/><stop offset="0.33" stop-color="#30a5fd"/><stop offset="0.78" stop-color="#6c6dfe"/><stop offset="1" stop-color="#8457ff"/></linearGradient></defs><title>peso boton</title><g class="cls-1"><g id="Capa_2" data-name="Capa 2"><g id="Capa_99" data-name="Capa 99"><circle class="cls-2" cx="60.79" cy="60.79" r="60.79"/><circle class="cls-3" cx="60.79" cy="60.79" r="47.58"/><g class="cls-4"><path class="cls-5" d="M49.17,78.35a2.36,2.36,0,0,1,.77,1.88,2.56,2.56,0,0,1-.77,2,3.07,3.07,0,0,1-2.16.7H45.38v2.18H44V77.68h3A3.16,3.16,0,0,1,49.17,78.35Zm-1,3a1.28,1.28,0,0,0,.43-1,1.22,1.22,0,0,0-.43-1,2,2,0,0,0-1.24-.34H45.38v2.74h1.55A2,2,0,0,0,48.17,81.31Z"/><path class="cls-5" d="M52.7,77.68h5.44v1.24h-4v1.83h3.61V82H54.12v1.86h4.15v1.24H52.7Z"/><path class="cls-5" d="M64.79,79a3.78,3.78,0,0,0-1.06-.19,1.53,1.53,0,0,0-.8.19.61.61,0,0,0-.3.53.7.7,0,0,0,.21.52,1.62,1.62,0,0,0,.52.34,9,9,0,0,0,.85.29,11,11,0,0,1,1.23.44,2.21,2.21,0,0,1,.83.66A1.84,1.84,0,0,1,66.6,83a2,2,0,0,1-.36,1.19,2.3,2.3,0,0,1-1,.76,3.73,3.73,0,0,1-1.46.27,4.75,4.75,0,0,1-1.7-.32A4.94,4.94,0,0,1,60.63,84l.59-1.21a4.48,4.48,0,0,0,1.26.82,3.34,3.34,0,0,0,1.31.3,1.68,1.68,0,0,0,.93-.23.75.75,0,0,0,.13-1.15,1.78,1.78,0,0,0-.52-.33c-.21-.08-.51-.18-.87-.28a11,11,0,0,1-1.23-.44,2.11,2.11,0,0,1-.82-.64,1.81,1.81,0,0,1-.34-1.13,1.9,1.9,0,0,1,.35-1.13,2.16,2.16,0,0,1,1-.74,3.69,3.69,0,0,1,1.46-.27,4.93,4.93,0,0,1,1.42.21,5.21,5.21,0,0,1,1.26.58L66,79.58A5.6,5.6,0,0,0,64.79,79Z"/><path class="cls-5" d="M74.91,78.08a3.69,3.69,0,0,1,1.43,1.37,3.84,3.84,0,0,1,0,3.86,3.79,3.79,0,0,1-1.43,1.38,4.2,4.2,0,0,1-4,0,3.87,3.87,0,0,1-1.43-1.38,3.75,3.75,0,0,1,1.43-5.23,4.27,4.27,0,0,1,4,0Zm-3.24,1.11a2.37,2.37,0,0,0-.92.91,2.43,2.43,0,0,0-.34,1.28,2.48,2.48,0,0,0,.34,1.28,2.62,2.62,0,0,0,.92.92,2.53,2.53,0,0,0,1.26.34,2.53,2.53,0,0,0,2.48-2.54,2.43,2.43,0,0,0-.34-1.28,2.48,2.48,0,0,0-2.14-1.25A2.43,2.43,0,0,0,71.67,79.19Z"/></g><path class="cls-5" d="M72.59,40.08H49a2.52,2.52,0,0,0-2.52,2.52V66.2A2.52,2.52,0,0,0,49,68.72h23.6A2.52,2.52,0,0,0,75.1,66.2V42.6A2.52,2.52,0,0,0,72.59,40.08Zm-2,7.83-3.31,4.4a1,1,0,0,1-1.25.28,11.34,11.34,0,0,0-4.12-1.21V48.07A1.12,1.12,0,0,0,60.83,47a1.1,1.1,0,0,0-1.14,1.1v3.33a11.35,11.35,0,0,0-4.11,1.21,1,1,0,0,1-1.25-.28L51,47.91a1,1,0,0,1,.29-1.45,18.9,18.9,0,0,1,19,0A1,1,0,0,1,70.56,47.91Z"/></g></g></g></svg>