<svg xmlns="http://www.w3.org/2000/svg" viewBox="0 0 33.11 33.11"><defs><style>.cls-1{isolation:isolate;}.cls-2{fill:#dbddf3;mix-blend-mode:luminosity;}.cls-3{fill:#373847;}</style></defs><title>silenciar boton</title><g class="cls-1"><g id="Capa_2" data-name="Capa 2"><g id="Capa_150" data-name="Capa 150"><circle class="cls-2" cx="16.56" cy="16.56" r="16.56"/><path class="cls-3" d="M22.89,13.4a7.47,7.47,0,0,1,.62,3,6.75,6.75,0,0,1-1.9,4.86L23,23.56a9.1,9.1,0,0,0,3.21-7.17,9.8,9.8,0,0,0-1.34-5Z"/><polygon class="cls-3" points="17.05 24.99 17.05 19.24 13.82 22.47 17.05 24.99"/><polygon class="cls-3" points="10.83 20.13 17.05 13.9 17.05 7.78 10.74 12.71 5.69 12.71 5.69 20.07 10.74 20.07 10.83 20.13"/><path class="cls-3" d="M25.74,8a.59.59,0,0,0-.82,0L9.21,23.56a.57.57,0,0,0,0,.82h0a.57.57,0,0,0,.82,0L25.74,8.77A.57.57,0,0,0,25.74,8Z"/></g></g></g></svg>