<?xml version="1.0" encoding="utf-8"?>
<!-- Generator: Adobe Illustrator 23.0.1, SVG Export Plug-In . SVG Version: 6.00 Build 0)  -->
<svg version="1.1" id="Capa_1" xmlns="http://www.w3.org/2000/svg" xmlns:xlink="http://www.w3.org/1999/xlink" x="0px" y="0px"
	 viewBox="0 0 15.6 19" style="enable-background:new 0 0 15.6 19;" xml:space="preserve">
<style type="text/css">
	.st0{fill:url(#SVGID_1_);}
	.st1{fill:url(#SVGID_2_);}
</style>
<title>tiempo</title>
<g id="Capa_8">
	
		<linearGradient id="SVGID_1_" gradientUnits="userSpaceOnUse" x1="7.7902" y1="-1416.7468" x2="7.7902" y2="-1397.7468" gradientTransform="matrix(1 0 0 -1 0 -1397.7264)">
		<stop  offset="0" style="stop-color:#8457FF"/>
		<stop  offset="0.22" style="stop-color:#6C6DFE"/>
		<stop  offset="0.67" style="stop-color:#30A5FD"/>
		<stop  offset="1" style="stop-color:#00D1FC"/>
	</linearGradient>
	<path class="st0" d="M14,6.4l0.8-0.8c0.4-0.4,0.4-1.1,0-1.6c-0.4-0.4-1.1-0.4-1.6,0l-0.8,0.8c-0.9-0.6-1.9-1.1-3-1.2V2.5h0.7
		c0.2,0,0.4-0.2,0.4-0.4v-1C10.5,0.5,10,0,9.3,0h-3C5.7,0,5.2,0.5,5.2,1.1v1c0,0.2,0.2,0.4,0.4,0.4h0.7v1.1c-1.1,0.2-2.1,0.6-3,1.2
		L2.5,4C2,3.6,1.3,3.6,0.9,4c-0.4,0.4-0.4,1.1,0,1.6c0,0,0,0,0,0l0.8,0.8c-2.7,3.4-2.1,8.3,1.2,11s8.3,2.1,11-1.2
		C16.2,13.3,16.2,9.2,14,6.4L14,6.4z M7.1,2.5h1.5v1c-0.5-0.1-1-0.1-1.5,0V2.5z M7.9,17.6c-3.5,0-6.4-2.8-6.4-6.3
		c0-3.2,2.3-5.9,5.4-6.3c0.3-0.1,0.7-0.1,1-0.1c0.3,0,0.7,0,1,0.1c1,0.2,2,0.6,2.9,1.2c0.3,0.3,0.6,0.6,0.9,0.9
		c2.3,2.6,2.1,6.6-0.6,9C11,17,9.5,17.6,7.9,17.6L7.9,17.6z"/>
	
		<linearGradient id="SVGID_2_" gradientUnits="userSpaceOnUse" x1="7.8851" y1="-1410.4764" x2="7.8851" y2="-1404.4863" gradientTransform="matrix(1 0 0 -1 0 -1397.7264)">
		<stop  offset="0" style="stop-color:#8457FF"/>
		<stop  offset="0.22" style="stop-color:#6C6DFE"/>
		<stop  offset="0.67" style="stop-color:#30A5FD"/>
		<stop  offset="1" style="stop-color:#00D1FC"/>
	</linearGradient>
	<path class="st1" d="M8.7,9.9V7.5c0-0.4-0.4-0.7-0.9-0.7c-0.4,0-0.6,0.3-0.7,0.7v2.4c-0.7,0.4-1,1.4-0.5,2.1c0.4,0.7,1.4,1,2.1,0.5
		c0.7-0.4,1-1.4,0.5-2.1C9.1,10.3,8.9,10.1,8.7,9.9z M7.9,11.6c-0.2,0-0.4-0.2-0.4-0.4s0.2-0.4,0.4-0.4c0,0,0,0,0,0
		c0.2,0,0.4,0.2,0.4,0.4S8.1,11.6,7.9,11.6C7.9,11.6,7.9,11.6,7.9,11.6z"/>
</g>
</svg>
