<svg xmlns="http://www.w3.org/2000/svg" xmlns:xlink="http://www.w3.org/1999/xlink" viewBox="0 0 121.58 121.57"><defs><style>.cls-1{isolation:isolate;}.cls-2{fill:#3c3e55;}.cls-3{fill:none;stroke-miterlimit:10;stroke-width:3.92px;opacity:0.5;stroke:url(#Degradado_sin_nombre_7);}.cls-4{mix-blend-mode:luminosity;}.cls-5{fill:#dbddf3;}</style><linearGradient id="Degradado_sin_nombre_7" x1="60.79" y1="110.32" x2="60.79" y2="11.25" gradientUnits="userSpaceOnUse"><stop offset="0" stop-color="#00d1fc"/><stop offset="0.33" stop-color="#30a5fd"/><stop offset="0.78" stop-color="#6c6dfe"/><stop offset="1" stop-color="#8457ff"/></linearGradient></defs><title>boton vel inicial</title><g class="cls-1"><g id="Capa_2" data-name="Capa 2"><g id="Capa_97" data-name="Capa 97"><circle class="cls-2" cx="60.79" cy="60.79" r="60.79"/><circle class="cls-3" cx="60.79" cy="60.79" r="47.58"/><g class="cls-4"><path class="cls-5" d="M27.32,77.68h1.52L31,83.52l2.2-5.84h1.46l-3,7.41H30.25Z"/><path class="cls-5" d="M37.87,83.88a.77.77,0,0,1,.2.54.79.79,0,0,1-.2.55.69.69,0,0,1-.53.22.65.65,0,0,1-.51-.22.77.77,0,0,1-.21-.55.73.73,0,0,1,.21-.54.68.68,0,0,1,.51-.21A.72.72,0,0,1,37.87,83.88Z"/><path class="cls-5" d="M45.22,77.68h1.42v7.41H45.22Z"/><path class="cls-5" d="M55.22,77.68H56.6v7.41H55.25L51.44,80v5.1H50.05V77.68H51.4l3.82,5.12Z"/><path class="cls-5" d="M60,77.68h1.42v7.41H60Z"/><path class="cls-5" d="M69.29,79.11a2.51,2.51,0,0,0-1.09-.25,2.46,2.46,0,0,0-1.26.32,2.38,2.38,0,0,0-.9.91,2.59,2.59,0,0,0,0,2.53,2.38,2.38,0,0,0,.9.91,2.48,2.48,0,0,0,1.26.34,2.55,2.55,0,0,0,1.06-.24,3,3,0,0,0,.95-.64l.84.93a4.47,4.47,0,0,1-1.36.94,3.76,3.76,0,0,1-1.57.34,3.84,3.84,0,0,1-2-.51,3.71,3.71,0,0,1-1.4-1.38,3.76,3.76,0,0,1-.51-1.93,3.65,3.65,0,0,1,.52-1.93,3.71,3.71,0,0,1,1.41-1.37,4.1,4.1,0,0,1,3.55-.18,3.93,3.93,0,0,1,1.3.88l-.83,1A2.88,2.88,0,0,0,69.29,79.11Z"/><path class="cls-5" d="M73.8,77.68h1.42v7.41H73.8Z"/><path class="cls-5" d="M84.12,85.09l-.66-1.56H79.84l-.65,1.56H77.71L81,77.68h1.48l3.21,7.41Zm-3.77-2.78H83l-1.3-3.12Z"/><path class="cls-5" d="M88.14,77.68h1.42v6.13h3.2v1.28H88.14Z"/></g><g class="cls-4"><path class="cls-5" d="M69.33,43.71a1.14,1.14,0,0,0-1.44-.14c-1.7,1.16-10.19,7-11.1,7.88a3.39,3.39,0,0,0,4.8,4.8c.91-.91,6.72-9.41,7.87-11.1A1.13,1.13,0,0,0,69.33,43.71ZM60,54.65a1.13,1.13,0,0,1-1.6,0,1.12,1.12,0,0,1,0-1.6c.35-.35,2.76-2.07,5.73-4.14C62.06,51.88,60.34,54.29,60,54.65Z"/><path class="cls-5" d="M49.92,59.11l-1.4.68a12.12,12.12,0,0,1-.76-10.28l1.6.77a1.21,1.21,0,0,0,.49.11,1.14,1.14,0,0,0,.49-2.16l-1.58-.75a12.24,12.24,0,0,1,9.29-5.81v1.71a1.14,1.14,0,0,0,2.27,0V41.67a12.24,12.24,0,0,1,3.89,1,1.13,1.13,0,0,0,1.5-.57,1.12,1.12,0,0,0-.57-1.49A14.48,14.48,0,0,0,44.7,53.85a14.46,14.46,0,0,0,2.45,8,1.15,1.15,0,0,0,.94.5,1.1,1.1,0,0,0,.5-.11l2.32-1.13a1.13,1.13,0,0,0-1-2Z"/><path class="cls-5" d="M72.4,47.89a1.13,1.13,0,0,0-2.07.93,12.18,12.18,0,0,1-.48,11l-1.46-.69a1.13,1.13,0,1,0-1,2l2.37,1.13a1.06,1.06,0,0,0,.49.11,1.14,1.14,0,0,0,.94-.5,14.43,14.43,0,0,0,1.18-14Z"/></g></g></g></g></svg>