<svg xmlns="http://www.w3.org/2000/svg" xmlns:xlink="http://www.w3.org/1999/xlink" viewBox="0 0 130 130"><defs><style>.cls-1{isolation:isolate;}.cls-2{fill:none;stroke-miterlimit:10;stroke-width:5.14px;opacity:0.5;stroke:url(#Degradado_sin_nombre_7);}.cls-3{mix-blend-mode:luminosity;}.cls-4{fill:#dbddf3;}</style><linearGradient id="Degradado_sin_nombre_7" x1="65" y1="130" x2="65" gradientUnits="userSpaceOnUse"><stop offset="0" stop-color="#00d1fc"/><stop offset="0.33" stop-color="#30a5fd"/><stop offset="0.78" stop-color="#6c6dfe"/><stop offset="1" stop-color="#8457ff"/></linearGradient></defs><title>ipe virtual boton borde</title><g class="cls-1"><g id="Capa_2" data-name="Capa 2"><g id="Capa_178" data-name="Capa 178"><circle class="cls-2" cx="65" cy="65" r="62.43"/><g class="cls-3"><path class="cls-4" d="M53.69,70a5.09,5.09,0,1,1,5.08-5.09A5.1,5.1,0,0,1,53.69,70Zm0-7.43A2.34,2.34,0,1,0,56,64.92,2.34,2.34,0,0,0,53.69,62.58Z"/><path class="cls-4" d="M75.82,70a5.09,5.09,0,1,1,5.09-5.09A5.1,5.1,0,0,1,75.82,70Zm0-7.43a2.34,2.34,0,1,0,2.35,2.34A2.34,2.34,0,0,0,75.82,62.58Z"/><path class="cls-4" d="M85.58,79.52H74c-3,0-4.51-.79-5.93-3l-2.17-3.38a1.49,1.49,0,0,0-2.21,0L61.48,76.5c-1.44,2.26-2.94,3-5.92,3H43.93A3.55,3.55,0,0,1,40.39,76V53.76a3.41,3.41,0,0,1,3.43-3.28H85.69a3.4,3.4,0,0,1,3.43,3.22V76A3.55,3.55,0,0,1,85.58,79.52ZM64.75,69.84a4,4,0,0,1,3.42,1.81L70.34,75c.85,1.33,1.46,1.75,3.62,1.75H85.58a.8.8,0,0,0,.8-.8V53.8a.67.67,0,0,0-.69-.58H43.82a.66.66,0,0,0-.69.6V76a.8.8,0,0,0,.8.8H55.56c2.16,0,2.75-.39,3.61-1.75l2.17-3.39A4,4,0,0,1,64.75,69.84Z"/></g></g></g></g></svg>